<?xml version="1.0" standalone="no"?><!DOCTYPE svg PUBLIC "-//W3C//DTD SVG 1.1//EN" "http://www.w3.org/Graphics/SVG/1.1/DTD/svg11.dtd"><svg t="1582470528449" class="icon" viewBox="0 0 1024 1024" version="1.1" xmlns="http://www.w3.org/2000/svg" p-id="13988" xmlns:xlink="http://www.w3.org/1999/xlink" width="200" height="200"><defs><style type="text/css"></style></defs><path d="M681.908 902.805c-49.759 0-132.699 14.66-145.635 48.497v0.752c-28.836 0.752-35.657 0-48.545 0-12.913-33.885-95.876-48.545-145.635-48.545H75.095V199.604h290.3c62.647 0 116.823 32.186 146.582 79.686 29.758-47.502 83.958-79.686 146.63-79.686h290.3v703.201H681.909zM487.727 345.24c0-56.749-61.289-97.09-121.363-97.09H123.638v606.815h218.453c48.157-0.849 124.106 0.51 145.635 35.972v-27.185c-0.923-33.594-0.049-79.469 0-81.362V360.897 345.241z m412.635-97.14H657.636c-60.075 0-121.363 40.317-121.363 96.993v436.714c0.049 1.869 0.923 47.744 0 81.265v27.161c21.53-35.413 97.478-36.797 145.635-35.923h218.453V248.102z" fill="#17b0e7" p-id="13989"></path></svg>